<?xml version="1.0" encoding="UTF-8" standalone="no"?>
<!-- Created with Inkscape (http://www.inkscape.org/) -->

<svg
   xmlns:dc="http://purl.org/dc/elements/1.1/"
   xmlns:cc="http://creativecommons.org/ns#"
   xmlns:rdf="http://www.w3.org/1999/02/22-rdf-syntax-ns#"
   xmlns:svg="http://www.w3.org/2000/svg"
   xmlns="http://www.w3.org/2000/svg"
   xmlns:sodipodi="http://sodipodi.sourceforge.net/DTD/sodipodi-0.dtd"
   xmlns:inkscape="http://www.inkscape.org/namespaces/inkscape"
   version="1.1"
   id="svg50"
   width="101"
   height="85"
   viewBox="0 0 101 85"
   sodipodi:docname="photo camera.svg"
   inkscape:version="0.92.2 (5c3e80d, 2017-08-06)">
  <metadata
     id="metadata56">
    <rdf:RDF>
      <cc:Work
         rdf:about="">
        <dc:format>image/svg+xml</dc:format>
        <dc:type
           rdf:resource="http://purl.org/dc/dcmitype/StillImage" />
        <dc:title></dc:title>
      </cc:Work>
    </rdf:RDF>
  </metadata>
  <defs
     id="defs54" />
  <sodipodi:namedview
     pagecolor="#42423d"
     bordercolor="#666666"
     borderopacity="1"
     objecttolerance="10"
     gridtolerance="10"
     guidetolerance="10"
     inkscape:pageopacity="0"
     inkscape:pageshadow="2"
     inkscape:window-width="1920"
     inkscape:window-height="991"
     id="namedview52"
     showgrid="false"
     inkscape:zoom="3.2360534"
     inkscape:cx="36.160995"
     inkscape:cy="98.841325"
     inkscape:window-x="-10"
     inkscape:window-y="-10"
     inkscape:window-maximized="1"
     inkscape:current-layer="svg50" />
  <path
     style="fill:#fefefe"
     d="m 41.362804,83.869526 c -8.4674,-2.647597 -15.90254,-9.0835 -20.52369,-17.765447 -1.89177,-3.554126 -2.28738,-5.847635 -2.29332,-13.29506 -0.008,-10.61601 2.21385,-16.273645 9.09522,-23.155021 7.2629,-7.262896 11.35855,-8.844979 22.89761,-8.844979 8.51109,0 10.6395,0.341454 14.29506,2.293312 11.20981,5.985384 17.30528,15.226475 18.00391,27.295006 0.64222,11.093961 -1.44088,16.641604 -9.19617,24.490851 -9.34229,9.455489 -20.67639,12.609136 -32.27862,8.981338 z m 20.1831,-7.911817 c 13.52924,-6.300246 18.77491,-21.869171 11.90773,-35.341604 -8.01132,-15.717068 -28.72407,-18.844175 -41.32866,-6.23959 -4.70382,4.703818 -6.35983,8.677092 -6.86564,16.472721 -0.37385,5.761774 -0.0493,7.987592 1.78752,12.25728 5.60898,13.03841 21.43628,18.934218 34.49905,12.851193 z M 13.042955,80.57994 C 9.4490837,78.702479 6.4474797,76.100757 4.0878817,72.817887 l -3.54925395,-4.93802 -0.30576,-21.365775 c -0.218105,-15.240691 0.0295,-21.769738 0.86370795,-22.774896 1.205586,-1.452643 16.5475583,-6.713882 23.1920483,-7.953274 3.07317,-0.573236 3.75,-1.12434 3.75,-3.053398 0,-3.0216234 5.52528,-9.3272062 9.70226,-11.0724612 1.96294,-0.82016829 7.05144,-1.35104439 12.9499,-1.35104439 13.72696,0 20.00829,3.34446429 22.28754,11.86690159 0.59475,2.223849 1.91569,2.89384 10.61977,5.386417 5.46729,1.565662 11.51553,3.611664 13.44053,4.54667 l 3.500006,1.700012 0.27026,21.377573 c 0.26889,21.269665 0.25754,21.399273 -2.249016,25.67638 -4.64944,7.933673 -13.58891,13.13522 -21.10248,12.278755 -2.33575,-0.266251 -2.91877,-0.819602 -2.91877,-2.77027 0,-2.11949 0.71768,-2.618917 5.5,-3.827387 7.11719,-1.79848 11.42256,-5.150991 13.44306,-10.467846 1.31171,-3.451714 1.56766,-7.49698 1.33928,-21.167583 l -0.28234,-16.900378 -4,-1.47421 c -2.2,-0.810815 -8.03632,-2.451742 -12.9696,-3.646505 l -8.9696,-2.172295 -1.26755,-4.453117 c -0.69716,-2.449214 -2.42343,-5.465618 -3.83617,-6.7031176 -2.30884,-2.0224589 -3.61362,-2.25 -12.90206,-2.25 -12.16363,0 -14.0842,0.9945796 -16.51344,8.5515776 l -1.54158,4.795617 -9,2.214762 c -4.95,1.218119 -10.912497,2.988861 -13.249997,3.934982 l -4.2499993,1.720221 v 16.025401 c 0,9.593905 0.482763,17.636723 1.202905,20.040342 1.755693,5.85998 6.7662893,10.24994 13.6037513,11.918722 5.00061,1.220472 5.69334,1.688184 5.69334,3.84396 0,3.80982 -6.42871,3.91716 -13.495669,0.225337 z M 6.4002537,16.809019 c -1.075115,-2.801704 0.494732,-4.316325 6.1896133,-5.971873 6.065477,-1.7632814 8.126717,-1.5309248 9.108187,1.026732 0.86346,2.250151 -1.38985,3.997664 -6.85225,5.31414 -6.2046163,1.495355 -7.7561433,1.427566 -8.4455503,-0.368999 z"
     id="path60"
     inkscape:connector-curvature="0" />
</svg>
