<?xml version="1.0" encoding="UTF-8" standalone="no"?>
<!-- Created with Inkscape (http://www.inkscape.org/) -->

<svg
   xmlns:dc="http://purl.org/dc/elements/1.1/"
   xmlns:cc="http://creativecommons.org/ns#"
   xmlns:rdf="http://www.w3.org/1999/02/22-rdf-syntax-ns#"
   xmlns:svg="http://www.w3.org/2000/svg"
   xmlns="http://www.w3.org/2000/svg"
   xmlns:sodipodi="http://sodipodi.sourceforge.net/DTD/sodipodi-0.dtd"
   xmlns:inkscape="http://www.inkscape.org/namespaces/inkscape"
   version="1.1"
   id="svg10"
   width="96"
   height="94"
   viewBox="0 0 96 94"
   sodipodi:docname="star.svg"
   inkscape:version="0.92.2 (5c3e80d, 2017-08-06)">
  <metadata
     id="metadata16">
    <rdf:RDF>
      <cc:Work
         rdf:about="">
        <dc:format>image/svg+xml</dc:format>
        <dc:type
           rdf:resource="http://purl.org/dc/dcmitype/StillImage" />
        <dc:title></dc:title>
      </cc:Work>
    </rdf:RDF>
  </metadata>
  <defs
     id="defs14" />
  <sodipodi:namedview
     pagecolor="#50504f"
     bordercolor="#666666"
     borderopacity="1"
     objecttolerance="10"
     gridtolerance="10"
     guidetolerance="10"
     inkscape:pageopacity="0"
     inkscape:pageshadow="2"
     inkscape:window-width="1920"
     inkscape:window-height="991"
     id="namedview12"
     showgrid="false"
     inkscape:zoom="5.852437"
     inkscape:cx="47.905329"
     inkscape:cy="48.560085"
     inkscape:window-x="-10"
     inkscape:window-y="-10"
     inkscape:window-maximized="1"
     inkscape:current-layer="svg10" />
  <path
     style="fill:#fefefe"
     d="m 45.534239,90.262607 c 0.27383,-3.784667 0.58122,-4.25 2.8075,-4.25 2.22627,0 2.53367,0.465333 2.8075,4.25 0.30071,4.156232 0.23877,4.25 -2.8075,4.25 -3.04627,0 -3.10821,-0.09377 -2.8075,-4.25 z m -24.00394,-9.788955 c -2.61355,-2.434893 -2.65165,-4.413151 -0.32667,-16.961045 l 1.76024,-9.5 -8.81107,-9.115298 C 4.5828094,34.996875 3.5822594,32.514181 7.6298294,28.711681 c 1.77825,-1.670574 4.8396796,-2.505438 13.7390396,-3.746684 6.29802,-0.878422 11.49197,-1.677064 11.54212,-1.77476 0.0502,-0.0977 2.39417,-5.000682 5.20895,-10.895523 4.12698,-8.6429252 5.61184,-10.8418966 7.66979,-11.35840848 5.65161,-1.41846558 7.237,-0.0185026 13.00628,11.48511448 l 5.45152,10.870019 8.7971,1.226112 c 12.43991,1.733835 16.11699,2.789985 17.2801,4.963279 2.17137,4.05724 1.07578,6.229251 -7.62928,15.125103 l -8.64628,8.835788 1.80802,11.532774 c 2.04469,13.042453 1.49034,15.996586 -3.22381,17.179762 -2.21644,0.556292 -4.93612,-0.419874 -13.48543,-4.840274 l -10.70905,-5.537098 -10.29858,5.334316 c -5.66422,2.933874 -11.22623,5.349412 -12.36002,5.367861 -1.13379,0.01845 -3.04629,-0.883985 -4.25,-2.00541 z m 16.1805,-9.961045 10.6465,-5.5 11.17263,5.736259 c 6.14494,3.154942 11.36033,5.548558 11.58974,5.319146 0.22941,-0.229412 -0.48249,-5.485419 -1.58199,-11.680014 -1.18599,-6.681803 -1.67515,-12.099263 -1.20263,-13.319146 0.43807,-1.130935 4.44378,-5.594034 8.90159,-9.917998 4.4578,-4.323964 8.1051,-7.982845 8.1051,-8.130845 0,-0.148001 -5.0625,-1.036575 -11.25,-1.97461 -6.1875,-0.938035 -12.15,-2.284167 -13.25,-2.991406 -1.1,-0.707239 -4.23205,-5.843375 -6.96011,-11.413637 -2.72807,-5.570262 -5.22102,-10.1277491 -5.53989,-10.1277491 -0.31888,0 -2.81183,4.5574871 -5.53989,10.1277491 -2.72806,5.570262 -5.86011,10.706398 -6.96011,11.413637 -1.1,0.707239 -7.08884,2.057427 -13.30853,3.000419 l -11.30853,1.714531 9.05853,9.237131 c 4.98219,5.080421 9.05254,9.635246 9.04523,10.121831 -0.007,0.486586 -0.90133,5.834702 -1.9867,11.884702 -1.08537,6.05 -1.97939,11.375 -1.9867,11.833333 -0.0171,1.071295 -0.16762,1.136268 12.35576,-5.333333 z M 1.0847894,61.922329 c -2.645143,-2.645147 1.08637,-6.409722 6.35343,-6.409722 2.52285,0 3.5917696,2.74032 1.77687,4.55522 -1.67102,1.671021 -7.08,2.904797 -8.1303,1.854502 z M 89.341739,61.238466 c -3.07553,-1.580731 -3.35277,-5.103911 -0.43446,-5.521238 1.13605,-0.162459 3.30475,0.175767 4.81934,0.751612 2.05983,0.783144 2.67332,1.613597 2.43446,3.295379 -0.38099,2.682434 -3.25836,3.304483 -6.81934,1.474247 z M 19.425549,10.101818 c -2.6499,-2.8206857 -2.42412,-5.965328 0.45808,-6.3801517 2.38489,-0.3432491 6.9173,5.1519111 6.07015,7.3595487 -0.83806,2.183955 -4.0024,1.709225 -6.52823,-0.979397 z m 51.30414,0.979397 c -0.84715,-2.2076376 3.68526,-7.7027978 6.07016,-7.3595487 2.70592,0.389452 3.08946,3.1691701 0.85979,6.2313822 -1.99087,2.7342585 -6.05946,3.3966095 -6.92995,1.1281665 z"
     id="path20"
     inkscape:connector-curvature="0" />
</svg>
