<?xml version="1.0" encoding="UTF-8" standalone="no"?>
<!-- Created with Inkscape (http://www.inkscape.org/) -->

<svg
   xmlns:dc="http://purl.org/dc/elements/1.1/"
   xmlns:cc="http://creativecommons.org/ns#"
   xmlns:rdf="http://www.w3.org/1999/02/22-rdf-syntax-ns#"
   xmlns:svg="http://www.w3.org/2000/svg"
   xmlns="http://www.w3.org/2000/svg"
   xmlns:sodipodi="http://sodipodi.sourceforge.net/DTD/sodipodi-0.dtd"
   xmlns:inkscape="http://www.inkscape.org/namespaces/inkscape"
   version="1.1"
   id="svg30"
   width="91"
   height="91"
   viewBox="0 0 91 91"
   sodipodi:docname="video player.svg"
   inkscape:version="0.92.2 (5c3e80d, 2017-08-06)">
  <metadata
     id="metadata36">
    <rdf:RDF>
      <cc:Work
         rdf:about="">
        <dc:format>image/svg+xml</dc:format>
        <dc:type
           rdf:resource="http://purl.org/dc/dcmitype/StillImage" />
        <dc:title></dc:title>
      </cc:Work>
    </rdf:RDF>
  </metadata>
  <defs
     id="defs34" />
  <sodipodi:namedview
     pagecolor="#565959"
     bordercolor="#666666"
     borderopacity="1"
     objecttolerance="10"
     gridtolerance="10"
     guidetolerance="10"
     inkscape:pageopacity="0"
     inkscape:pageshadow="2"
     inkscape:window-width="1920"
     inkscape:window-height="991"
     id="namedview32"
     showgrid="false"
     inkscape:zoom="6.0453745"
     inkscape:cx="69.281711"
     inkscape:cy="53.092507"
     inkscape:window-x="-10"
     inkscape:window-y="-10"
     inkscape:window-maximized="1"
     inkscape:current-layer="svg30" />
  <path
     style="fill:#fefefe"
     d="m 1.5274621,88.903633 c -1.34790104,-1.924399 -1.55670404,-7.759112 -1.55670404,-43.5 0,-39.9441597 0.0646,-41.3420964 2.00000004,-43.277493 1.888889,-1.88888896 3.333334,-2.00000007 26.0000039,-2.00000007 28.62466,0 28,-0.23424704 28,10.49999907 v 6.5 h 17.5 17.5 v 26.5 26.5 h -17.5 -17.5 v 8.277494 c 0,13.457166 1.61685,12.722506 -28,12.722506 -24.5834849,0 -24.9055559,-0.02707 -26.4432999,-2.222506 z M 50.036502,87.090955 c 1.50677,-0.8064 1.93426,-2.113938 1.93426,-5.916251 v -4.881067 l -12,-0.333749 c -6.6,-0.183562 -17.4,-0.183562 -24,0 L 3.9707621,76.293637 v 4.866561 c 0,3.579855 0.46269,5.136056 1.75,5.885842 2.35566,1.372048 41.7613399,1.411987 44.3157399,0.04492 z m -26.62562,-2.415853 c -0.94593,-1.44367 -1.33856,-3.293589 -0.95533,-4.501061 1.4937,-4.706237 8.63175,-5.080982 10.69107,-0.561278 2.70629,5.93967 -6.14518,10.542217 -9.73574,5.062339 z m 6.01717,-2.479865 c 0.73954,-1.196602 -1.14162,-2.382227 -2.47361,-1.559017 -1.11835,0.691184 -0.38416,2.489919 1.01632,2.489919 0.48508,0 1.14086,-0.418906 1.45729,-0.930902 z m 8.79271,-11.817082 -15.25,-0.304108 V 43.600093 17.126139 h 15.05901 c 9.7847,0 14.84256,-0.350243 14.44099,-1 -0.38418,-0.62161 -9.67705,-1 -24.55902,-1 H 3.9707621 v 28 28 L 28.720762,70.904201 c 17.83857,-0.159962 20.49144,-0.30686 9.5,-0.526046 z m 49.75,-6.752016 c 0,-1.481591 -0.57291,-2.5 -1.40638,-2.5 -0.91405,0 -1.22329,0.700137 -0.88337,2 0.51143,1.955712 0.0307,2 -21.71025,2 -21.74094,0 -22.22168,-0.04429 -21.71025,-2 0.33992,-1.299863 0.0307,-2 -0.88337,-2 -0.77351,0 -1.40638,0.9 -1.40638,2 0,1.370068 -0.66667,2 -2.11663,2 -1.62431,0 -1.99498,-0.465201 -1.59362,-2 0.33992,-1.299863 0.0307,-2 -0.88337,-2 -0.77351,0 -1.40638,0.9 -1.40638,2 0,1.490439 -0.66667,2 -2.61663,2 -2.12431,0 -2.51823,-0.376308 -2.09362,-2 0.33992,-1.299863 0.0307,-2 -0.88337,-2 -0.83348,0 -1.40638,1.018409 -1.40638,2.5 v 2.5 h 30.5 30.5 z m 0,-24.5 v -18 h -30.5 -30.5 v 18 18 h 30.5 30.5 z m -36,14.932725 c -15.58902,-6.531227 -11.12263,-29.432758 5.69057,-29.178584 14.37445,0.217306 19.88849,18.769977 8.17366,27.50129 -3.08721,2.300964 -10.29446,3.172897 -13.86423,1.677294 z M 29.143642,25.466952 c 0.42145,-2.188412 3.32712,-2.498014 3.32712,-0.354508 0,0.817468 -0.82837,1.645834 -1.84082,1.840813 -1.33639,0.257366 -1.74367,-0.149909 -1.4863,-1.486305 z m 4.82712,-0.340813 c 0,-1.111111 0.66666,-2 1.5,-2 0.83333,0 1.5,0.888889 1.5,2 0,1.111111 -0.66667,2 -1.5,2 -0.83334,0 -1.5,-0.888889 -1.5,-2 z m 4,0 c 0,-1.506149 0.52215,-2.046091 1.75,-1.809629 0.9625,0.18536 1.75,0.999694 1.75,1.809629 0,0.809935 -0.7875,1.624269 -1.75,1.809629 -1.22785,0.236462 -1.75,-0.30348 -1.75,-1.809629 z m 14.0827,-17.249999 -0.66469,-3.25 H 27.970762 4.5527521 l -0.6647,3.25 -0.664695,3.249999 h 24.7474049 24.7474 z m -35.0827,-0.75 c 0,-1.3333333 0.66666,-2 2,-2 1.33333,0 2,0.6666667 2,2 0,1.3333333 -0.66667,2 -2,2 -1.33334,0 -2,-0.6666667 -2,-2 z m 9,0 c 0,-1.7948718 0.66666,-2 6.5,-2 5.83333,0 6.5,0.2051282 6.5,2 0,1.7948718 -0.66667,2 -6.5,2 -5.83334,0 -6.5,-0.2051282 -6.5,-2 z"
     id="path40"
     inkscape:connector-curvature="0" />
</svg>
